# xmcd
#
# Track frame offsets:
#	150
#	4056
#	34707
#	53338
#	61228
#	72452
#	86161
#	95894
#	107431
#	115044
#	131850
#	142717
#	150106
#	165692
#	180575
#	221573
#	238307
#
# Disc length: 3473 seconds
# Revision: 0
# Processed by: cddbd v1.5.2PL0 Copyright (c) Steve Scherf et al.
# Submitted via: dBpowerAMP V12.0
#
DISCID=de0d8f11
DTITLE=Michael Nesmith with Red Rhodes - Cosmic Partners (Live at McCabe's Guitar Shop Aug 18, 1973)
DYEAR=2019
DGENRE=Country Rock
TTITLE0=Welcome To McCabe's
TTITLE1=Tomorrow and Me
TTITLE2=The Upside of Goodbye
TTITLE3=The Sock Cymbal Scared Me
TTITLE4=Grand Ennui
TTITLE5=Some of Shelly's Blues
TTITLE6=Cosmic Partners
TTITLE7=Rose City Chimes
TTITLE8=A Dog Wrote It
TTITLE9=Poinciana
TTITLE10=The Crippled Lion
TTITLE11=Alice Nesmith
TTITLE12=The One Rose
TTITLE13=Propinquity (I've Just Begun To Care)
TTITLE14=The Great Escape
TTITLE15=Joanne
TTITLE16=Silver Moon
EXTD=
EXTT0=
EXTT1=
EXTT2=
EXTT3=
EXTT4=
EXTT5=
EXTT6=
EXTT7=
EXTT8=
EXTT9=
EXTT10=
EXTT11=
EXTT12=
EXTT13=
EXTT14=
EXTT15=
EXTT16=
PLAYORDER=
